<?xml version="1.0" encoding="UTF-8" standalone="no"?>
<svg
   xmlns:dc="http://purl.org/dc/elements/1.1/"
   xmlns:cc="http://creativecommons.org/ns#"
   xmlns:rdf="http://www.w3.org/1999/02/22-rdf-syntax-ns#"
   xmlns:svg="http://www.w3.org/2000/svg"
   xmlns="http://www.w3.org/2000/svg"
   xmlns:sodipodi="http://sodipodi.sourceforge.net/DTD/sodipodi-0.dtd"
   xmlns:inkscape="http://www.inkscape.org/namespaces/inkscape"
   version="1.1"
   id="Capa_1"
   x="0px"
   y="0px"
   viewBox="0 0 60 60"
   style="enable-background:new 0 0 60 60;"
   xml:space="preserve"
   sodipodi:docname="pentagon.svg"
   inkscape:version="0.92.2 5c3e80d, 2017-08-06"><metadata
     id="metadata148"><rdf:RDF><cc:Work
         rdf:about=""><dc:format>image/svg+xml</dc:format><dc:type
           rdf:resource="http://purl.org/dc/dcmitype/StillImage" /></cc:Work></rdf:RDF></metadata><defs
     id="defs146" /><sodipodi:namedview
     pagecolor="#ffffff"
     bordercolor="#666666"
     borderopacity="1"
     objecttolerance="10"
     gridtolerance="10"
     guidetolerance="10"
     inkscape:pageopacity="0"
     inkscape:pageshadow="2"
     inkscape:window-width="723"
     inkscape:window-height="480"
     id="namedview144"
     showgrid="false"
     inkscape:zoom="3.9333333"
     inkscape:cx="30"
     inkscape:cy="30"
     inkscape:window-x="0"
     inkscape:window-y="0"
     inkscape:window-maximized="0"
     inkscape:current-layer="Capa_1" /><path
     d="M59.662,26.042L30.701,0.458c-0.377-0.332-0.94-0.334-1.319-0.004L0.343,25.79c-0.306,0.267-0.42,0.692-0.289,1.076   l11,32.249c0.138,0.405,0.519,0.677,0.946,0.677h35.954c0.427,0,0.806-0.271,0.945-0.674l11.046-32   C60.077,26.735,59.966,26.311,59.662,26.042z M47.241,57.792H12.716L2.163,26.856L30.035,2.538l27.801,24.56L47.241,57.792z"
     id="path141" /><path
     style="fill:#ffffff;stroke-width:0.25423729"
     d="M 12.640892,57.114407 C 12.543971,56.869703 10.183832,49.981853 7.39614,41.808076 L 2.3276081,26.94666 2.9053295,26.394215 C 4.6406156,24.734849 29.852697,2.8983051 30.033285,2.8983051 c 0.403355,0 27.602552,24.2054079 27.52713,24.4972449 -0.04135,0.15999 -2.386685,7.011013 -5.211864,15.224494 l -5.136687,14.933603 -17.197375,0.0028 c -16.143354,0.0027 -17.208176,-0.02443 -17.373597,-0.442078 z"
     id="path150"
     inkscape:connector-curvature="0" /><path
     style="fill:#800000;stroke-width:0.25423729"
     d="M 12.632351,57.241525 C 12.56943,57.066737 10.223462,50.180148 7.4190895,41.937994 L 2.3202305,26.95226 3.0287593,26.270099 C 4.8038143,24.561105 29.835364,2.8983051 30.035064,2.8983051 c 0.198102,0 5.04148,4.2374677 22.943975,20.0736689 l 4.729742,4.183838 -1.46215,4.205992 c -0.80418,2.313295 -3.165986,9.153654 -5.248456,15.200794 l -3.786311,10.994799 -17.232554,10e-4 C 16.423069,57.55916 12.722347,57.491557 12.632351,57.241562 Z"
     id="path152"
     inkscape:connector-curvature="0" /><path
     style="fill:#ffffff;stroke-width:0.25423729"
     d="M 19.334896,57.370243 C 13.423222,57.303486 12.798053,57.255425 12.644714,56.855929 12.551684,56.613557 10.237822,49.843592 7.5027986,41.811559 3.8901785,31.20226 2.5963283,27.099466 2.7724244,26.811559 3.2150993,26.08781 29.675718,3.1525424 30.068039,3.1525424 c 0.311423,0 27.445947,23.8647966 27.432775,24.1271066 -0.0042,0.08391 -2.338838,6.902554 -5.188055,15.152554 l -5.180392,15 -10.638219,0.0058 c -5.851019,0.0032 -13.572682,-0.0273 -17.159252,-0.0678 z"
     id="path154"
     inkscape:connector-curvature="0" /><path
     style="fill:#ffffff;stroke-width:0.25423729"
     d="m 14.123695,57.118561 -1.308509,-0.09247 -3.2997575,-9.7122 C 4.7222559,33.206118 2.8074765,27.267507 2.940296,26.921385 3.1236903,26.443467 26.333642,6.18168 29.216581,3.9827549 l 0.834266,-0.6363255 0.826272,0.6347456 c 2.997495,2.3026911 26.377434,23.062089 26.375867,23.419529 -0.0011,0.244204 -7.46644,22.117677 -9.533829,27.934042 l -0.700345,1.970339 -15.793304,-0.04703 C 22.53919,57.23219 14.843375,57.169416 14.123695,57.118561 Z"
     id="path156"
     inkscape:connector-curvature="0" /></svg>