<?xml version="1.0" encoding="UTF-8" standalone="no"?>
<svg
   xmlns:dc="http://purl.org/dc/elements/1.1/"
   xmlns:cc="http://creativecommons.org/ns#"
   xmlns:rdf="http://www.w3.org/1999/02/22-rdf-syntax-ns#"
   xmlns:svg="http://www.w3.org/2000/svg"
   xmlns="http://www.w3.org/2000/svg"
   xmlns:sodipodi="http://sodipodi.sourceforge.net/DTD/sodipodi-0.dtd"
   xmlns:inkscape="http://www.inkscape.org/namespaces/inkscape"
   version="1.1"
   id="Capa_1"
   x="0px"
   y="0px"
   viewBox="0 0 49.94 49.94"
   style="enable-background:new 0 0 49.94 49.94;"
   xml:space="preserve"
   sodipodi:docname="star.svg"
   inkscape:version="0.92.2 5c3e80d, 2017-08-06"><metadata
     id="metadata346"><rdf:RDF><cc:Work
         rdf:about=""><dc:format>image/svg+xml</dc:format><dc:type
           rdf:resource="http://purl.org/dc/dcmitype/StillImage" /></cc:Work></rdf:RDF></metadata><defs
     id="defs344" /><sodipodi:namedview
     pagecolor="#ffffff"
     bordercolor="#666666"
     borderopacity="1"
     objecttolerance="10"
     gridtolerance="10"
     guidetolerance="10"
     inkscape:pageopacity="0"
     inkscape:pageshadow="2"
     inkscape:window-width="723"
     inkscape:window-height="480"
     id="namedview342"
     showgrid="false"
     inkscape:zoom="4.7256709"
     inkscape:cx="24.969999"
     inkscape:cy="24.969999"
     inkscape:window-x="0"
     inkscape:window-y="0"
     inkscape:window-maximized="0"
     inkscape:current-layer="Capa_1" /><path
     d="M48.856,22.731c0.983-0.958,1.33-2.364,0.906-3.671c-0.425-1.307-1.532-2.24-2.892-2.438l-12.092-1.757   c-0.515-0.075-0.96-0.398-1.19-0.865L28.182,3.043c-0.607-1.231-1.839-1.996-3.212-1.996c-1.372,0-2.604,0.765-3.211,1.996   L16.352,14c-0.23,0.467-0.676,0.79-1.191,0.865L3.069,16.623C1.71,16.82,0.603,17.753,0.178,19.06   c-0.424,1.307-0.077,2.713,0.906,3.671l8.749,8.528c0.373,0.364,0.544,0.888,0.456,1.4L8.224,44.702   c-0.232,1.353,0.313,2.694,1.424,3.502c1.11,0.809,2.555,0.914,3.772,0.273l10.814-5.686c0.461-0.242,1.011-0.242,1.472,0   l10.815,5.686c0.528,0.278,1.1,0.415,1.669,0.415c0.739,0,1.475-0.231,2.103-0.688c1.111-0.808,1.656-2.149,1.424-3.502   L39.651,32.66c-0.088-0.513,0.083-1.036,0.456-1.4L48.856,22.731z M37.681,32.998l2.065,12.042c0.104,0.606-0.131,1.185-0.629,1.547   c-0.499,0.361-1.12,0.405-1.665,0.121l-10.815-5.687c-0.521-0.273-1.095-0.411-1.667-0.411s-1.145,0.138-1.667,0.412l-10.813,5.686   c-0.547,0.284-1.168,0.24-1.666-0.121c-0.498-0.362-0.732-0.94-0.629-1.547l2.065-12.042c0.199-1.162-0.186-2.348-1.03-3.17   L2.48,21.299c-0.441-0.43-0.591-1.036-0.4-1.621c0.19-0.586,0.667-0.988,1.276-1.077l12.091-1.757   c1.167-0.169,2.176-0.901,2.697-1.959l5.407-10.957c0.272-0.552,0.803-0.881,1.418-0.881c0.616,0,1.146,0.329,1.419,0.881   l5.407,10.957c0.521,1.058,1.529,1.79,2.696,1.959l12.092,1.757c0.609,0.089,1.086,0.491,1.276,1.077   c0.19,0.585,0.041,1.191-0.4,1.621l-8.749,8.528C37.866,30.65,37.481,31.835,37.681,32.998z"
     id="path339" /><path
     style="fill:#ffffff;stroke-width:0.21161017"
     d="m 11.123094,46.602993 c -0.976165,-0.472667 -0.969067,-0.834303 0.141309,-7.199837 1.113937,-6.385944 1.226876,-7.681715 0.749926,-8.604035 -0.165761,-0.320545 -2.4511506,-2.714279 -5.0786442,-5.319408 -3.973523,-3.939702 -4.7772611,-4.836732 -4.7772611,-5.331767 0,-0.608873 0.6364467,-1.437622 1.1109533,-1.446627 0.145482,-0.0028 3.0843881,-0.422075 6.5309025,-0.931809 6.1318805,-0.906895 7.1286505,-1.154993 7.8390135,-1.951147 0.192359,-0.21559 1.652831,-3.010658 3.245494,-6.2112616 1.592663,-3.2006037 2.994112,-5.9383102 3.114332,-6.0837922 0.313302,-0.3791349 1.555989,-0.3263265 1.965854,0.08354 0.191429,0.1914288 1.583115,2.8812468 3.092632,5.9773736 2.871906,5.8904712 3.529664,6.8708842 4.834914,7.2065922 0.411435,0.105821 3.509577,0.584664 6.88476,1.064096 5.740393,0.815401 6.167441,0.905965 6.612817,1.402386 0.261868,0.291881 0.478398,0.739638 0.481176,0.995015 0.0036,0.329725 -1.433745,1.87518 -4.958375,5.331357 -4.149584,4.068994 -5.00469,5.010156 -5.215065,5.739898 -0.223151,0.774057 -0.128974,1.589785 0.831977,7.206325 0.595988,3.483406 1.083614,6.583209 1.083614,6.888452 0,0.716686 -0.954665,1.503975 -1.620941,1.33675 -0.261471,-0.06562 -3.027106,-1.474311 -6.145855,-3.130412 -5.302373,-2.815639 -5.745997,-3.011274 -6.834306,-3.013892 -1.091845,-0.0026 -1.531437,0.19032 -7.104806,3.11845 -3.267523,1.716688 -6.029036,3.114805 -6.136695,3.106928 -0.107659,-0.0079 -0.399136,-0.112805 -0.647726,-0.233175 z"
     id="path348"
     inkscape:connector-curvature="0" /><path
     style="fill:#ffffff;stroke-width:0.21161017"
     d="m 11.095875,46.631148 c -0.948832,-0.38119 -0.937479,-0.864121 0.172339,-7.330695 1.122774,-6.542065 1.215658,-7.601714 0.744189,-8.489941 C 11.845584,30.49623 9.5601942,28.097333 6.9337596,25.479626 3.0122012,21.571102 2.1584237,20.615805 2.1584237,20.136471 c 0,-0.536326 0.6287276,-1.430133 1.0059934,-1.430133 0.7171348,0 12.0414079,-1.771662 12.8993309,-2.018076 0.778948,-0.223732 1.255403,-0.517742 1.622067,-1.000941 0.285536,-0.376288 1.766531,-3.199533 3.291098,-6.2738782 1.524567,-3.074345 2.877431,-5.7168269 3.006365,-5.8721821 0.3311,-0.3989531 1.565139,-0.3509693 1.993628,0.077519 0.197991,0.197991 1.62833,2.9469737 3.178531,6.1088505 2.973114,6.0641258 3.3766,6.6445328 4.912756,7.0668888 0.4312,0.118555 3.497901,0.601701 6.814891,1.073657 5.635906,0.801902 6.062072,0.89287 6.507012,1.388958 0.261868,0.291971 0.47793,0.739801 0.480137,0.995178 0.0028,0.328585 -1.445196,1.890293 -4.953354,5.342189 -4.260053,4.191735 -4.991314,5.003935 -5.1987,5.774103 -0.211494,0.785433 -0.109259,1.676784 0.826957,7.20978 0.587557,3.472451 1.068287,6.556862 1.068287,6.854248 0,0.702025 -0.96256,1.487704 -1.620365,1.322606 -0.261157,-0.06555 -2.890682,-1.391051 -5.843392,-2.945567 -5.998713,-3.15815 -6.612968,-3.412686 -7.733065,-3.204446 -0.42886,0.07973 -3.403002,1.51753 -6.609205,3.195114 -3.206202,1.677584 -5.920103,3.044116 -6.03089,3.036737 -0.110786,-0.0074 -0.41707,-0.100045 -0.680631,-0.205928 z"
     id="path350"
     inkscape:connector-curvature="0" /></svg>