<?xml version="1.0" encoding="iso-8859-1"?>
<!-- Generator: Adobe Illustrator 19.0.0, SVG Export Plug-In . SVG Version: 6.00 Build 0)  -->
<svg version="1.1" id="Capa_1" xmlns="http://www.w3.org/2000/svg" xmlns:xlink="http://www.w3.org/1999/xlink" x="0px" y="0px"
	 viewBox="0 0 512 512" style="enable-background:new 0 0 512 512;" xml:space="preserve">
<path style="fill:#FDD835;" d="M486.45,278.464v63.203H19.538l-4.248-27.053h0.003c22.265,0,40.316-18.05,40.316-40.316v-8.8
	l103.202-13.005h298.052c2.936,2.304,6.302,4.098,10.01,5.2l5.25,1.563C480.619,261.781,486.45,269.597,486.45,278.464z"/>
<path style="fill:#80D8FF;" d="M445.92,234.576l-6.048-31.338c-7.278-37.717-40.292-64.968-78.704-64.968h-99.889
	c-31.819,0-60.625,18.821-73.406,47.961l-29.063,66.262h298.05C451.275,248.099,447.313,241.795,445.92,234.576z"/>
<rect x="7.515" y="341.667" style="fill:#B0BEC5;" width="496.971" height="30.059"/>
<path style="fill:#FBC02D;" d="M104.043,321.628c-18.795,0-33.219-17.1-29.553-35.534c0.758-3.815,1.157-7.759,1.157-11.794v-11.326
	l-20.039,2.525v8.8c0,22.266-18.05,40.316-40.316,40.316H15.29l4.248,27.053H486.45v-20.039H104.043z"/>
<path style="fill:#ED593B;" d="M55.609,265.497l-16.351,2.06c-16.825,2.12-28.567,17.73-25.938,34.482l1.973,12.576l0,0
	c22.265,0,40.316-18.05,40.316-40.316V265.497z"/>
<polygon style="fill:#FDD835;" points="354.192,138.27 263.014,138.27 285.057,100.196 332.149,100.196 "/>
<circle style="fill:#616161;" cx="130.755" cy="361.706" r="50.098"/>
<path style="fill:#D8D7DA;" d="M130.755,381.746c-11.05,0-20.039-8.99-20.039-20.039s8.99-20.039,20.039-20.039
	s20.039,8.99,20.039,20.039S141.805,381.746,130.755,381.746z"/>
<circle style="fill:#616161;" cx="396.274" cy="361.706" r="50.098"/>
<path style="fill:#D8D7DA;" d="M396.274,381.746c-11.05,0-20.039-8.99-20.039-20.039s8.99-20.039,20.039-20.039
	c11.05,0,20.039,8.99,20.039,20.039S407.324,381.746,396.274,381.746z"/>
<g>
	<path style="fill:#424242;" d="M130.755,333.652c23.88,0,43.844,16.713,48.866,39.076c0.797-3.548,1.231-7.233,1.231-11.022
		c0-27.668-22.43-50.098-50.098-50.098s-50.098,22.43-50.098,50.098c0,3.788,0.435,7.474,1.231,11.022
		C86.912,350.364,106.876,333.652,130.755,333.652z"/>
	<path style="fill:#424242;" d="M396.274,333.652c23.88,0,43.844,16.713,48.866,39.076c0.797-3.548,1.231-7.233,1.231-11.022
		c0-27.668-22.43-50.098-50.098-50.098c-27.668,0-50.098,22.43-50.098,50.098c0,3.788,0.435,7.474,1.231,11.022
		C352.43,350.364,372.394,333.652,396.274,333.652z"/>
</g>
<path style="fill:#40C4FF;" d="M445.92,234.576l-0.797-4.126H168.478l-9.668,22.043h298.05
	C451.275,248.099,447.313,241.795,445.92,234.576z"/>
<polygon style="fill:#FBC02D;" points="354.192,138.27 263.014,138.27 274.616,118.231 342.589,118.231 "/>
<path d="M130.755,334.153c-15.194,0-27.554,12.361-27.554,27.554s12.36,27.554,27.554,27.554c15.194,0,27.554-12.361,27.554-27.554
	S145.949,334.153,130.755,334.153z M130.755,374.231c-6.906,0-12.524-5.618-12.524-12.524s5.618-12.524,12.524-12.524
	s12.524,5.618,12.524,12.524S137.662,374.231,130.755,374.231z"/>
<path d="M396.274,334.153c-15.194,0-27.554,12.361-27.554,27.554s12.36,27.554,27.554,27.554c15.194,0,27.554-12.361,27.554-27.554
	S411.468,334.153,396.274,334.153z M396.274,374.231c-6.906,0-12.524-5.618-12.524-12.524s5.618-12.524,12.524-12.524
	s12.524,5.618,12.524,12.524S403.18,374.231,396.274,374.231z"/>
<path d="M493.965,334.153v-55.69c0-12.102-8.102-22.963-19.702-26.412l-5.253-1.562c-8.092-2.405-14.111-9.048-15.711-17.337
	l-6.048-31.338c-7.947-41.174-44.149-71.059-86.083-71.059h-2.643l-22.043-38.074h-55.757l-22.071,38.122
	c-33.749,1.007-64.038,21.347-77.663,52.408l-27.349,62.358L38.318,260.101c-10.172,1.281-19.167,6.5-25.33,14.694
	c-6.162,8.193-8.681,18.282-7.091,28.409l4.856,30.948H0v45.088h75.88c7.437,23.219,29.22,40.078,54.875,40.078
	s47.439-16.859,54.875-40.078h155.768c7.437,23.219,29.22,40.078,54.875,40.078c25.655,0,47.439-16.859,54.875-40.078H512v-45.088
	H493.965z M414.81,169.504c8.789,9.619,15.076,21.649,17.684,35.158L438.542,236c0.609,3.156,1.62,6.16,2.952,8.979H414.81V169.504z
	 M361.167,145.785c14.061,0,27.344,4.058,38.613,11.148v88.046H280.548v-99.194H361.167z M289.389,107.71h38.427l13.342,23.045
	h-65.11L289.389,107.71z M194.755,189.25c11.581-26.405,37.693-43.465,66.524-43.465h4.239v99.194h-95.207L194.755,189.25z
	 M24.999,283.828c3.697-4.916,9.096-8.047,15.198-8.816l7.897-0.995v0.278c0,15.921-11.403,29.225-26.471,32.185l-0.88-5.607
	C19.79,294.798,21.302,288.745,24.999,283.828z M73.206,364.211H15.029v-15.029h59.501c-0.899,4.035-1.388,8.223-1.388,12.524
	C73.143,362.546,73.171,363.38,73.206,364.211z M130.755,404.29c-23.481,0-42.583-19.102-42.583-42.583s19.102-42.583,42.583-42.583
	s42.583,19.102,42.583,42.583S154.236,404.29,130.755,404.29z M338.725,364.211h-150.42c0.036-0.832,0.063-1.665,0.063-2.505
	c0-4.301-0.489-8.49-1.388-12.524h153.068c-0.899,4.035-1.388,8.223-1.388,12.524C338.661,362.546,338.69,363.38,338.725,364.211z
	 M396.274,404.29c-23.481,0-42.583-19.102-42.583-42.583s19.102-42.583,42.583-42.583c23.481,0,42.583,19.102,42.583,42.583
	S419.755,404.29,396.274,404.29z M446.857,334.153c-9.786-17.894-28.789-30.059-50.583-30.059
	c-21.794,0-40.796,12.165-50.583,30.059H181.338c-9.786-17.894-28.789-30.059-50.583-30.059s-40.796,12.165-50.583,30.059H25.966
	l-2.012-12.824c22.251-4.09,39.17-23.616,39.17-47.033v-2.171l96.158-12.116h295.12c3.125,2.105,6.586,3.777,10.325,4.889
	l5.252,1.561c5.273,1.568,8.955,6.505,8.955,12.005v14.609h-21.542v15.029h21.543v26.051H446.857z M496.971,364.211h-43.147
	c0.036-0.832,0.063-1.665,0.063-2.505c0-4.301-0.489-8.49-1.388-12.524h44.472V364.211z"/>
<g>
	<path style="fill:#FFFFFF;" d="M89.945,299.041l-1.879-14.912l14.911-1.879l1.879,14.912L89.945,299.041z M119.767,295.284
		l-1.879-14.912l43.74-5.512l1.879,14.912L119.767,295.284z"/>
	<path style="fill:#FFFFFF;" d="M212.578,223.449l-13.764-6.037l5.598-12.763l13.764,6.037L212.578,223.449z M224.101,197.665
		l-13.126-7.323c5.676-10.173,14.198-18.3,24.643-23.498l6.697,13.456C234.592,184.143,228.294,190.147,224.101,197.665z"/>
	<path style="fill:#FFFFFF;" d="M382.247,175.843h-48.094v-15.029h48.094V175.843z M319.123,175.843h-15.029v-15.029h15.029V175.843
		z"/>
	<rect x="188.869" y="284.556" style="fill:#FFFFFF;" width="15.029" height="15.029"/>
	<rect x="203.898" y="298.583" style="fill:#FFFFFF;" width="15.029" height="15.029"/>
	<rect x="218.427" y="284.556" style="fill:#FFFFFF;" width="15.029" height="15.029"/>
	<rect x="233.456" y="298.583" style="fill:#FFFFFF;" width="15.029" height="15.029"/>
	<rect x="248.485" y="284.556" style="fill:#FFFFFF;" width="15.029" height="15.029"/>
	<rect x="263.515" y="298.583" style="fill:#FFFFFF;" width="15.029" height="15.029"/>
	<rect x="278.544" y="284.556" style="fill:#FFFFFF;" width="15.029" height="15.029"/>
	<rect x="293.573" y="298.583" style="fill:#FFFFFF;" width="15.029" height="15.029"/>
	<rect x="307.601" y="284.556" style="fill:#FFFFFF;" width="15.029" height="15.029"/>
	<rect x="322.63" y="298.583" style="fill:#FFFFFF;" width="15.029" height="15.029"/>
	<rect x="362.207" y="276.039" style="fill:#FFFFFF;" width="48.094" height="15.029"/>
</g>
<g>
</g>
<g>
</g>
<g>
</g>
<g>
</g>
<g>
</g>
<g>
</g>
<g>
</g>
<g>
</g>
<g>
</g>
<g>
</g>
<g>
</g>
<g>
</g>
<g>
</g>
<g>
</g>
<g>
</g>
</svg>
