<?xml version="1.0" encoding="UTF-8" standalone="no"?>
<svg
   xmlns:dc="http://purl.org/dc/elements/1.1/"
   xmlns:cc="http://creativecommons.org/ns#"
   xmlns:rdf="http://www.w3.org/1999/02/22-rdf-syntax-ns#"
   xmlns:svg="http://www.w3.org/2000/svg"
   xmlns="http://www.w3.org/2000/svg"
   xmlns:sodipodi="http://sodipodi.sourceforge.net/DTD/sodipodi-0.dtd"
   xmlns:inkscape="http://www.inkscape.org/namespaces/inkscape"
   version="1.1"
   id="Capa_1"
   x="0px"
   y="0px"
   viewBox="0 0 304.315 304.315"
   style="enable-background:new 0 0 304.315 304.315;"
   xml:space="preserve"
   sodipodi:docname="cloud2.svg"
   inkscape:version="0.92.2 5c3e80d, 2017-08-06"><metadata
     id="metadata9"><rdf:RDF><cc:Work
         rdf:about=""><dc:format>image/svg+xml</dc:format><dc:type
           rdf:resource="http://purl.org/dc/dcmitype/StillImage" /><dc:title></dc:title></cc:Work></rdf:RDF></metadata><defs
     id="defs7" /><sodipodi:namedview
     pagecolor="#ffffff"
     bordercolor="#666666"
     borderopacity="1"
     objecttolerance="10"
     gridtolerance="10"
     guidetolerance="10"
     inkscape:pageopacity="0"
     inkscape:pageshadow="2"
     inkscape:window-width="1274"
     inkscape:window-height="679"
     id="namedview5"
     showgrid="false"
     inkscape:zoom="1.4722615"
     inkscape:cx="152.1575"
     inkscape:cy="152.1575"
     inkscape:window-x="0"
     inkscape:window-y="0"
     inkscape:window-maximized="0"
     inkscape:current-layer="Capa_1" /><path
     d="M254.831,131.694c-1.738-43.42-37.604-78.212-81.441-78.212c-29.725,0-56.691,16.007-71.026,41.473   c-6.424-3.661-13.722-5.616-21.253-5.616c-22.167,0-40.471,16.86-42.759,38.43C15.213,137.962,0,160.985,0,186.585   c0,16.843,6.47,32.762,18.218,44.824c11.723,12.036,27.419,18.929,44.192,19.408c0.359,0.011,32.254,0.016,94.799,0.016   c80.686,0,88.054-0.01,88.842-0.015v0.001l0.11-0.002c0.037-0.001,0.074-0.001,0.111-0.003c15.617-0.515,30.217-6.984,41.109-18.214   c10.92-11.259,16.934-26.1,16.934-41.789C304.315,161.422,283.092,136.705,254.831,131.694z M245.896,235.821   c-0.023,0-0.046,0-0.069,0c-1.253,0.007-37.631,0.012-88.619,0.012c-44.391,0-92.178-0.004-94.446-0.012   C35.974,235.011,15,213.4,15,186.585c0-20.957,13.298-39.66,33.091-46.542c3.053-1.061,5.082-3.958,5.036-7.19   c-0.002-0.149-0.007-0.297-0.012-0.445l-0.003-0.072c0-15.438,12.561-27.999,28-27.999c7.05,0,13.788,2.634,18.972,7.416   c1.796,1.656,4.286,2.336,6.672,1.817c2.387-0.517,4.373-2.164,5.323-4.414c10.428-24.71,34.494-40.676,61.311-40.676   c36.672,0,66.507,29.836,66.507,66.51c0,0.869-0.024,1.805-0.078,3.036c-0.179,4.099,2.968,7.581,7.065,7.815   c23.794,1.36,42.432,21.113,42.432,44.969C289.315,215.206,270.252,234.953,245.896,235.821z"
     id="path2" /><path
     style="fill:#ffffff;stroke-width:0.67922717"
     d="m 58.695841,235.15226 c -6.362344,-0.76081 -9.821631,-1.78983 -15.961838,-4.74808 -15.634788,-7.5326 -26.10559,-23.18145 -27.237835,-40.70757 -1.338905,-20.72502 10.808357,-40.14572 30.236455,-48.34121 5.509192,-2.32398 7.529401,-4.49323 7.529401,-8.08486 0,-7.82653 3.577146,-15.79019 9.595533,-21.36215 9.730627,-9.00885 24.282254,-9.51124 35.313711,-1.2192 3.647832,2.74197 4.734012,3.21796 7.216162,3.16234 3.71521,-0.0833 5.66796,-1.84885 8.5783,-7.75611 8.72457,-17.708696 24.0393,-30.106957 43.77812,-35.44124 7.69849,-2.080465 22.65406,-2.09326 30.87071,-0.02641 12.17881,3.063512 22.82856,9.065234 31.21034,17.588764 6.2582,6.364028 9.61849,11.036418 13.10994,18.228976 4.069,8.38238 5.7466,15.2041 6.34734,25.81063 0.68551,12.10309 1.30025,12.89499 11.14875,14.36171 29.7545,4.43126 46.81467,35.7452 34.30046,62.95851 -5.43201,11.81239 -16.21072,20.87215 -29.39928,24.71077 -3.78308,1.10108 -10.82222,1.19357 -98.14833,1.28962 -51.74013,0.0569 -96.059702,-0.13411 -98.487939,-0.42449 z"
     id="path11"
     inkscape:connector-curvature="0" /><path
     style="fill:#ffffff;stroke-width:0.67922717"
     d="m 58.695841,235.15226 c -6.378979,-0.7628 -9.832175,-1.79308 -15.961838,-4.76232 -12.707234,-6.15542 -21.095814,-16.19177 -25.55934,-30.57995 -1.255904,-4.0484 -1.572043,-6.63265 -1.575168,-12.87606 -0.0046,-9.20848 1.121272,-14.15019 5.029365,-22.07488 5.077409,-10.29578 12.287606,-17.25128 23.626243,-22.79165 7.393482,-3.61266 9.006921,-5.29731 9.006921,-9.40448 0,-10.47939 7.957907,-22.27968 17.466612,-25.90016 9.237943,-3.51738 18.380254,-2.28886 27.173237,3.65148 8.327417,5.62581 11.138407,4.73083 16.441397,-5.2347 18.97089,-35.650667 62.51874,-47.175471 95.45346,-25.261465 17.58929,11.703512 28.39713,30.481425 29.34188,50.979615 0.57305,12.43338 1.74947,14.27299 9.83231,15.37518 10.74278,1.46492 19.22095,5.63531 26.73801,13.15236 8.31771,8.31772 12.45661,17.46721 13.04445,28.83617 1.11017,21.47105 -12.24431,39.86203 -33.42127,46.02573 -3.78308,1.10108 -10.82222,1.19357 -98.14833,1.28962 -51.74013,0.0569 -96.059702,-0.13411 -98.487939,-0.42449 z"
     id="path13"
     inkscape:connector-curvature="0" /></svg>