<?xml version="1.0" encoding="UTF-8" standalone="no"?>
<svg
   xmlns:dc="http://purl.org/dc/elements/1.1/"
   xmlns:cc="http://creativecommons.org/ns#"
   xmlns:rdf="http://www.w3.org/1999/02/22-rdf-syntax-ns#"
   xmlns:svg="http://www.w3.org/2000/svg"
   xmlns="http://www.w3.org/2000/svg"
   xmlns:sodipodi="http://sodipodi.sourceforge.net/DTD/sodipodi-0.dtd"
   xmlns:inkscape="http://www.inkscape.org/namespaces/inkscape"
   version="1.1"
   id="Capa_1"
   x="0px"
   y="0px"
   viewBox="0 0 51.997 51.997"
   style="enable-background:new 0 0 51.997 51.997;"
   xml:space="preserve"
   sodipodi:docname="heart.svg"
   inkscape:version="0.92.2 5c3e80d, 2017-08-06"><metadata
     id="metadata43"><rdf:RDF><cc:Work
         rdf:about=""><dc:format>image/svg+xml</dc:format><dc:type
           rdf:resource="http://purl.org/dc/dcmitype/StillImage" /></cc:Work></rdf:RDF></metadata><defs
     id="defs41" /><sodipodi:namedview
     pagecolor="#ffffff"
     bordercolor="#666666"
     borderopacity="1"
     objecttolerance="10"
     gridtolerance="10"
     guidetolerance="10"
     inkscape:pageopacity="0"
     inkscape:pageshadow="2"
     inkscape:window-width="723"
     inkscape:window-height="480"
     id="namedview39"
     showgrid="false"
     inkscape:zoom="4.5387232"
     inkscape:cx="25.280584"
     inkscape:cy="25.998501"
     inkscape:window-x="0"
     inkscape:window-y="0"
     inkscape:window-maximized="0"
     inkscape:current-layer="Capa_1" /><g
     id="g36"><path
       d="M51.911,16.242C51.152,7.888,45.239,1.827,37.839,1.827c-4.93,0-9.444,2.653-11.984,6.905     c-2.517-4.307-6.846-6.906-11.697-6.906c-7.399,0-13.313,6.061-14.071,14.415c-0.06,0.369-0.306,2.311,0.442,5.478     c1.078,4.568,3.568,8.723,7.199,12.013l18.115,16.439l18.426-16.438c3.631-3.291,6.121-7.445,7.199-12.014     C52.216,18.553,51.97,16.611,51.911,16.242z M49.521,21.261c-0.984,4.172-3.265,7.973-6.59,10.985L25.855,47.481L9.072,32.25     c-3.331-3.018-5.611-6.818-6.596-10.99c-0.708-2.997-0.417-4.69-0.416-4.701l0.015-0.101C2.725,9.139,7.806,3.826,14.158,3.826     c4.687,0,8.813,2.88,10.771,7.515l0.921,2.183l0.921-2.183c1.927-4.564,6.271-7.514,11.069-7.514     c6.351,0,11.433,5.313,12.096,12.727C49.938,16.57,50.229,18.264,49.521,21.261z"
       id="path34" /></g><path
     style="fill:#ffffff;stroke-width:0.22032627"
     d="M 16.8038,39.126792 C 11.935563,34.681242 7.466398,30.449092 6.8723212,29.722015 2.034267,23.800834 0.89718934,16.933625 3.761383,10.933973 7.3416926,3.4342668 16.346873,1.6404315 22.006067,7.2996253 c 1.206681,1.2066808 1.722122,1.9577415 2.656645,3.8710567 0.637717,1.305644 1.212691,2.320693 1.277718,2.255665 0.06503,-0.06503 0.443433,-0.8661 0.840904,-1.780162 3.583891,-8.2418864 13.236081,-10.2970565 19.111132,-4.0691925 5.355271,5.6768675 5.166107,14.5965695 -0.461907,21.7806955 -0.840704,1.073154 -4.295909,4.324709 -10.253115,9.648801 -4.941806,4.416606 -9.105973,8.069102 -9.253704,8.116657 -0.147731,0.04756 -4.251704,-3.550802 -9.11994,-7.996354 z"
     id="path45"
     inkscape:connector-curvature="0" /><path
     style="fill:#ffffff;stroke-width:0.22032627"
     d="M 16.95225,39.289646 C 12.165662,34.931621 7.681839,30.698633 6.9881994,29.88301 5.3214505,27.923146 3.885811,25.353609 3.0206071,22.781737 2.3694541,20.846145 2.3158684,20.464812 2.30851,17.714233 2.3017067,15.171111 2.3751496,14.5162 2.8150199,13.197544 3.5971573,10.85283 4.5801317,9.1713658 6.1323896,7.5228923 9.4899395,3.9572273 14.540436,2.9754085 18.892689,5.0422843 c 2.453977,1.1653883 4.28527,3.1010675 5.810803,6.1420267 l 1.19518,2.38244 0.823255,-1.847592 C 30.43196,3.3929209 39.996,1.3264252 45.892466,7.5769925 c 4.395626,4.6595935 5.116743,11.4222285 1.914997,17.9588235 -1.395606,2.84923 -3.257053,5.133084 -6.644311,8.152072 -1.495577,1.332974 -5.525034,4.927046 -8.954345,7.986828 -3.429312,3.059781 -6.306789,5.557697 -6.39439,5.550926 -0.0876,-0.0068 -4.075578,-3.577969 -8.862167,-7.935996 z"
     id="path47"
     inkscape:connector-curvature="0" /><path
     style="fill:#ffffff;stroke-width:0.22032627"
     d="M 16.95225,39.294399 C 12.165662,34.935761 7.7213653,30.751029 7.0760353,29.994993 0.97221467,22.844071 0.56061932,13.426542 6.0954781,7.5593005 8.6720461,4.8280027 12.159629,3.5653157 15.740456,4.0673152 c 3.824579,0.5361713 7.028198,3.0960207 9.026173,7.2123578 l 1.094426,2.254798 1.035939,-2.1514 c 2.322631,-4.8235605 6.076529,-7.3727438 10.87609,-7.3856999 3.365072,-0.00908 5.788925,1.0831049 8.255581,3.7199688 4.256316,4.5500151 4.937186,11.3703981 1.778798,17.8184761 -1.390385,2.838571 -3.245102,5.116782 -6.650489,8.169022 -8.795976,7.883807 -15.203694,13.531913 -15.342544,13.523737 -0.08761,-0.0052 -4.075591,-3.575539 -8.86218,-7.934176 z"
     id="path49"
     inkscape:connector-curvature="0" /></svg>